# xmcd
# 
# Track frame offsets:
#     150
#     18820
#     32880
#     49505
#     65230
#     79592
#     96054
#     120667
#     141612
#     158892
#     174587
#     192409
# 
# Disc length: 2753
# 
# Revision: 3
# Processed by: cddbd v1.5.2PL0 Copyright (c) Steve Scherf et al.
# Submitted via: BonkEnc v1.0.6
# 
DISCID=a20abf0c
DTITLE=Various Artist - Lembranças
DYEAR=1997
DGENRE=Country
TTITLE0=Maddie Rock - You've Got a Friend
TTITLE1=Ralph Jones - Please don't Go
TTITLE2=Mary Bonnie - Killing me Softly
TTITLE3=J. Bill - Black Roses
TTITLE4=Ralph Jones - Father and Son
TTITLE5=Martin Greth - Summe Beeze
TTITLE6=Linda Martin - Total Eclypse of the Hearth
TTITLE7=J. Bill - Save me Now
TTITLE8=Doug Wayne - Operator
TTITLE9=Billy Cast - Year of the Cat
TTITLE10=Mary Tompson - Daniel
TTITLE11=John Lyle - Country Roads
EXTD=
EXTT0=
EXTT1=
EXTT2=
EXTT3=
EXTT4=
EXTT5=
EXTT6=
EXTT7=
EXTT8=
EXTT9=
EXTT10=
EXTT11=
PLAYORDER=
